<svg width="60" height="60" viewBox="0 0 60 60" fill="none" xmlns="http://www.w3.org/2000/svg">
<g clip-path="url(#clip0_1314_10)">
<rect width="60" height="60" fill="white"/>
<circle cx="30" cy="30" r="30" fill="#16A34A"/>
<path d="M51.7354 19.1582L42.5513 40.9995H37.723L41.0816 33.4626L35.125 19.1582H40.137L43.5222 28.4202L46.881 19.1582H51.7354Z" fill="white"/>
<path d="M27.6834 19C29.5029 19 30.946 19.5573 32.0131 20.6719C33.0979 21.7866 33.64 23.3347 33.64 25.3162V33.9678H29.1792V25.9266C29.1792 24.9712 28.9256 24.237 28.4182 23.7239C27.9284 23.1931 27.2462 22.9277 26.3714 22.9277C25.4967 22.9277 24.8057 23.1931 24.2984 23.7239C23.8085 24.237 23.5636 24.9712 23.5636 25.9266V33.9678H19.1027V25.9266C19.1027 24.9712 18.849 24.237 18.3417 23.7239C17.8519 23.1931 17.1696 22.9277 16.2949 22.9277C15.4202 22.9277 14.7292 23.1931 14.2219 23.7239C13.7321 24.237 13.4872 24.9712 13.4872 25.9266V33.9678H9V19.1592H13.4872V21.0169C13.942 20.3977 14.5368 19.9112 15.2715 19.5573C16.0063 19.1858 16.8372 19 17.7644 19C18.8665 19 19.8462 19.2389 20.7034 19.7165C21.5781 20.1942 22.2603 20.8754 22.7502 21.76C23.2575 20.9462 23.9485 20.2827 24.8232 19.7696C25.6979 19.2565 26.6513 19 27.6834 19Z" fill="white"/>
</g>
<defs>
<clipPath id="clip0_1314_10">
<rect width="60" height="60" fill="white"/>
</clipPath>
</defs>
</svg>
